<?xml version="1.0" standalone="no"?>
<!DOCTYPE svg PUBLIC "-//W3C//DTD SVG 20010904//EN"
 "http://www.w3.org/TR/2001/REC-SVG-20010904/DTD/svg10.dtd">
<svg version="1.0" xmlns="http://www.w3.org/2000/svg"
 width="512.000000pt" height="512.000000pt" viewBox="0 0 512.000000 512.000000"
 preserveAspectRatio="xMidYMid meet">
<metadata>
Created by potrace 1.11, written by Peter Selinger 2001-2013
</metadata>
<g transform="translate(0.000000,512.000000) scale(0.100000,-0.100000)"
fill="#000000" stroke="none">
<path d="M4615 4789 c-136 -20 -215 -41 -365 -98 -63 -25 -62 -24 -193 -85
-241 -113 -621 -357 -867 -558 -19 -16 -40 -32 -45 -36 -13 -9 -256 -213 -271
-227 -6 -5 -42 -38 -80 -72 -79 -71 -136 -125 -282 -264 -96 -93 -104 -99
-144 -99 -99 0 -265 -67 -394 -159 -56 -41 -704 -685 -704 -701 0 -4 168 -7
373 -6 351 0 373 1 392 19 61 58 158 96 236 91 68 -4 137 -40 205 -110 152
-153 169 -310 48 -443 l-34 -39 0 -378 1 -379 332 333 c183 183 354 363 380
400 90 124 154 290 153 392 -1 31 11 47 115 155 160 164 192 199 357 384 73
81 262 316 350 434 389 520 626 1049 619 1377 l-2 75 -65 1 c-36 0 -87 -3
-115 -7z m-482 -681 c-27 -70 -85 -170 -162 -283 -190 -280 -485 -619 -944
-1087 l-105 -106 -37 54 c-42 64 -138 161 -203 206 l-45 31 125 121 c237 229
359 343 498 466 47 41 87 77 90 80 80 80 391 323 550 430 81 55 222 130 242
130 4 0 0 -19 -9 -42z"/>
<path d="M2298 4645 c-2 -2 -37 -6 -78 -10 -41 -4 -78 -9 -81 -11 -4 -2 -22
-6 -41 -8 -151 -20 -372 -93 -563 -186 -231 -113 -401 -234 -580 -414 -245
-246 -407 -506 -521 -838 -18 -53 -35 -107 -38 -120 -2 -12 -11 -50 -19 -83
-8 -33 -18 -80 -22 -105 -4 -25 -9 -54 -11 -65 -26 -126 -25 -512 1 -660 42
-236 96 -404 196 -610 169 -350 427 -643 759 -863 128 -85 348 -192 495 -240
243 -81 449 -111 725 -107 343 5 631 77 935 234 122 63 276 158 320 198 11 10
37 31 57 46 168 125 401 402 525 622 108 194 212 482 238 665 4 24 8 47 10 50
19 30 28 493 12 615 -27 212 -118 519 -195 662 l-17 32 -75 -107 c-41 -58
-105 -144 -142 -190 -53 -67 -65 -88 -58 -102 11 -21 59 -200 66 -250 3 -19 7
-46 10 -60 7 -44 17 -183 17 -250 2 -547 -261 -1081 -693 -1406 -232 -175
-497 -287 -805 -339 -80 -14 -398 -14 -485 0 -324 51 -593 165 -840 358 -93
73 -132 110 -225 214 -214 239 -380 585 -421 878 -3 28 -9 59 -11 70 -9 38
-11 360 -3 410 4 28 11 75 15 105 27 218 149 511 301 725 66 93 205 244 304
331 45 40 209 152 280 192 194 109 471 191 695 208 72 5 243 5 290 -1 22 -2
60 -7 85 -9 66 -8 215 -41 295 -66 l70 -22 128 95 c70 52 154 112 187 134 33
21 60 41 60 44 0 10 -166 84 -264 118 -233 82 -446 118 -708 118 -97 0 -178
-1 -180 -2z"/>
<path d="M2194 2455 c-16 -7 -148 -133 -294 -279 l-265 -266 50 -50 49 -50
-202 -200 c-111 -110 -202 -202 -202 -205 0 -3 24 7 53 23 28 16 120 64 202
107 83 43 173 90 200 105 28 15 112 60 188 99 75 40 137 76 137 81 0 4 -18 24
-40 44 -22 20 -40 40 -40 45 0 5 84 55 188 112 103 57 202 118 220 135 56 56
40 137 -46 223 -76 76 -140 101 -198 76z"/>
</g>
</svg>
