<?xml version="1.0" encoding="UTF-8"?>
<svg width="404px" height="64px" viewBox="0 0 404 64" version="1.1" xmlns="http://www.w3.org/2000/svg" xmlns:xlink="http://www.w3.org/1999/xlink">
    <!-- Generator: Sketch 44.1 (41455) - http://www.bohemiancoding.com/sketch -->
    <title>Artboard 6</title>
    <desc>Created with Sketch.</desc>
    <defs></defs>
    <g id="Final-Logo" stroke="none" stroke-width="1" fill="none" fill-rule="evenodd">
        <g id="Artboard-6" fill="#FFFFFF">
            <g id="Logo" transform="translate(0.000000, 1.000000)">
                <path d="M79.085,31.605 C79.085,39.984 84.867,44.149 90.698,44.149 C96.578,44.149 102.36,39.984 102.36,31.605 C102.36,23.226 96.578,19.061 90.698,19.061 C84.867,19.061 79.085,23.226 79.085,31.605 Z M73.058,31.605 C73.058,20.237 81.584,13.524 90.698,13.524 C99.812,13.524 108.387,20.237 108.387,31.605 C108.387,43.022 99.812,49.735 90.698,49.735 C81.584,49.735 73.058,43.022 73.058,31.605 Z M118.645,58.31 L113.01,58.31 L113.01,25.137 L118.498,25.137 L118.498,28.371 C119.674,26.313 122.418,24.598 126.093,24.598 C133.149,24.598 137.118,29.988 137.118,37.044 C137.118,44.198 132.757,49.588 125.897,49.588 C122.467,49.588 119.87,48.118 118.645,46.305 L118.645,58.31 Z M131.434,37.044 C131.434,32.585 128.837,29.645 125.015,29.645 C121.291,29.645 118.596,32.585 118.596,37.044 C118.596,41.601 121.291,44.541 125.015,44.541 C128.788,44.541 131.434,41.601 131.434,37.044 Z M148.552,17.836 L143.407,17.836 L143.407,21.413 C143.407,23.52 142.28,25.137 139.732,25.137 L138.507,25.137 L138.507,30.184 L142.917,30.184 L142.917,42.189 C142.917,46.648 145.661,49.294 150.071,49.294 C152.129,49.294 153.207,48.902 153.55,48.755 L153.55,44.051 C153.305,44.1 152.374,44.247 151.59,44.247 C149.483,44.247 148.552,43.365 148.552,41.258 L148.552,30.184 L153.501,30.184 L153.501,25.137 L148.552,25.137 L148.552,17.836 Z M163.857,49 L163.857,25.137 L158.222,25.137 L158.222,49 L163.857,49 Z M157.34,16.758 C157.34,18.816 159.006,20.433 161.015,20.433 C163.073,20.433 164.739,18.816 164.739,16.758 C164.739,14.7 163.073,13.034 161.015,13.034 C159.006,13.034 157.34,14.7 157.34,16.758 Z M175.732,49 L175.732,34.839 C175.732,31.801 177.643,29.547 180.681,29.547 C183.915,29.547 185.287,31.703 185.287,34.447 L185.287,49 L190.873,49 L190.873,34.839 C190.873,31.899 192.833,29.547 195.822,29.547 C199.007,29.547 200.428,31.654 200.428,34.447 L200.428,49 L205.916,49 L205.916,33.516 C205.916,27.195 201.8,24.451 197.488,24.451 C194.401,24.451 191.608,25.529 189.746,28.665 C188.472,25.872 185.728,24.451 182.592,24.451 C179.897,24.451 176.908,25.725 175.536,28.175 L175.536,25.137 L170.097,25.137 L170.097,49 L175.732,49 Z M217.399,49 L217.399,25.137 L211.764,25.137 L211.764,49 L217.399,49 Z M210.882,16.758 C210.882,18.816 212.548,20.433 214.557,20.433 C216.615,20.433 218.281,18.816 218.281,16.758 C218.281,14.7 216.615,13.034 214.557,13.034 C212.548,13.034 210.882,14.7 210.882,16.758 Z M241.328,49 L241.328,44.002 L228.833,44.002 L241.083,29.939 L241.083,25.137 L222.071,25.137 L222.071,30.135 L233.929,30.135 L221.826,44.051 L221.826,49 L241.328,49 Z M249.626,34.447 L261.337,34.447 C261.239,31.654 259.377,29.155 255.457,29.155 C251.88,29.155 249.822,31.899 249.626,34.447 Z M261.974,40.67 L266.776,42.189 C265.502,46.354 261.729,49.735 255.996,49.735 C249.528,49.735 243.795,45.031 243.795,36.946 C243.795,29.4 249.381,24.402 255.408,24.402 C262.758,24.402 267.07,29.253 267.07,36.799 C267.07,37.73 266.972,38.514 266.923,38.612 L249.479,38.612 C249.626,42.238 252.468,44.835 255.996,44.835 C259.426,44.835 261.19,43.022 261.974,40.67 Z M293.694,49 L293.694,43.414 L277.769,43.414 L277.769,14.259 L271.889,14.259 L271.889,49 L293.694,49 Z M301.355,34.447 L313.066,34.447 C312.968,31.654 311.106,29.155 307.186,29.155 C303.609,29.155 301.551,31.899 301.355,34.447 Z M313.703,40.67 L318.505,42.189 C317.231,46.354 313.458,49.735 307.725,49.735 C301.257,49.735 295.524,45.031 295.524,36.946 C295.524,29.4 301.11,24.402 307.137,24.402 C314.487,24.402 318.799,29.253 318.799,36.799 C318.799,37.73 318.701,38.514 318.652,38.612 L301.208,38.612 C301.355,42.238 304.197,44.835 307.725,44.835 C311.155,44.835 312.919,43.022 313.703,40.67 Z M321.658,42.532 C321.658,38.269 324.794,35.917 328.861,35.329 L334.986,34.398 C336.358,34.202 336.75,33.516 336.75,32.683 C336.75,30.674 335.378,29.057 332.242,29.057 C329.253,29.057 327.587,30.968 327.342,33.369 L322.148,32.193 C322.589,28.077 326.313,24.402 332.193,24.402 C339.543,24.402 342.336,28.567 342.336,33.32 L342.336,45.178 C342.336,47.334 342.581,48.755 342.63,49 L337.338,49 C337.289,48.853 337.093,47.873 337.093,45.962 C335.966,47.775 333.614,49.735 329.743,49.735 C324.745,49.735 321.658,46.305 321.658,42.532 Z M330.821,45.276 C334.006,45.276 336.75,43.757 336.75,39.102 L336.75,38.024 L330.527,38.955 C328.763,39.249 327.342,40.229 327.342,42.189 C327.342,43.806 328.567,45.276 330.821,45.276 Z M351.859,36.995 C351.859,41.552 354.407,44.59 358.278,44.59 C362.002,44.59 364.599,41.503 364.599,36.946 C364.599,32.389 362.051,29.547 358.327,29.547 C354.603,29.547 351.859,32.438 351.859,36.995 Z M370.087,13.524 L370.087,44.639 C370.087,46.795 370.283,48.608 370.332,49 L364.893,49 C364.795,48.461 364.648,46.893 364.648,45.913 C363.521,47.922 361.022,49.588 357.641,49.588 C350.781,49.588 346.175,44.198 346.175,36.995 C346.175,30.135 350.83,24.5 357.543,24.5 C361.708,24.5 363.815,26.411 364.55,27.93 L364.55,13.524 L370.087,13.524 Z M374.318,42.532 C374.612,45.227 377.258,49.735 384.167,49.735 C390.243,49.735 393.183,45.717 393.183,42.091 C393.183,38.563 390.831,35.819 386.323,34.839 L382.697,34.104 C381.227,33.81 380.296,32.879 380.296,31.605 C380.296,30.135 381.717,28.861 383.726,28.861 C386.911,28.861 387.94,31.066 388.136,32.438 L392.938,31.066 C392.546,28.714 390.39,24.402 383.726,24.402 C378.777,24.402 374.955,27.93 374.955,32.095 C374.955,35.378 377.16,38.122 381.374,39.053 L384.902,39.837 C386.813,40.229 387.695,41.209 387.695,42.483 C387.695,43.953 386.47,45.227 384.118,45.227 C381.08,45.227 379.463,43.316 379.267,41.16 L374.318,42.532 Z" id="OptimizeLeads"></path>
                <path d="M41.8352512,33.2815434 C41.5854979,36.1151026 40.3532332,38.7722601 38.3516119,40.7933852 L38.3552263,40.7969394 L29.8414241,49.3962212 L29.8373278,38.7828983 L30.4736959,38.1400846 L30.4676719,38.1340607 C31.1423522,37.4559468 31.501258,36.4585043 31.3725266,35.2907653 C31.2446988,34.1324237 30.6665219,33.0317913 29.8344966,32.1845254 L29.8344966,32.155731 L29.8061841,32.155731 C28.9669903,31.3131638 27.875213,30.7275172 26.7265699,30.5982437 C25.5703366,30.4680665 24.5828939,30.8304662 23.9114063,31.5121945 L23.9051414,31.5051465 L23.2640144,32.1527793 L12.7576163,32.1485625 L21.1048569,23.7173484 C23.110159,21.5990973 25.8193101,20.28511 28.7242861,20.0217873 C51.5242018,-2.45349883 61.580552,0.0863109085 61.580552,0.0863109085 C61.580552,0.0863109085 64.0968082,10.2446463 41.8352512,33.2815434 Z M31.860224,26.1251136 C33.4132301,27.1912748 34.7500472,28.5421754 35.7998748,30.1062692 C51.7545569,13.9565322 52.6548334,9.10082227 52.6548334,9.10082227 C52.6548334,9.10082227 47.8372549,10.0213391 31.860224,26.1248726 L31.860224,26.1251136 Z M25.1857086,32.8658922 C25.2085393,32.8409531 25.2320929,32.8170381 25.2567308,32.7941472 L25.3497403,32.7001739 L25.3567883,32.7072821 C25.6918995,32.4552408 26.1656817,32.3587375 26.7253651,32.4717464 C28.0084624,32.7307754 29.2563197,33.9913432 29.5127584,35.2872715 C29.624683,35.8526174 29.5290833,36.3310982 29.279572,36.6696431 L29.280054,36.6700648 L29.1595753,36.8137355 L29.1475275,36.8204823 C28.9826224,36.9799991 28.7792506,37.0941363 28.5571822,37.1517985 L23.2518461,40.1273192 L24.5656052,41.4543309 L13.4057913,47.418143 L19.3126772,41.4516804 L17.9989784,40.1247289 L25.1857086,32.8658922 Z M12.648041,14.8846995 C3.21570984,24.4119076 3.21570984,39.8587121 12.648041,49.3860407 C17.1551415,53.9577351 23.3069789,56.5315865 29.7268188,56.5315865 C36.1466587,56.5315865 42.298496,53.9577351 46.8055965,49.3860407 C53.6121565,42.5109284 55.5048756,32.5539731 52.4874886,23.9626429 C53.9555206,22.0823331 55.2187389,20.3281042 56.308468,18.6952575 C61.8842184,29.9419364 60.035474,43.9849241 50.747175,53.3671964 C45.199799,58.9937005 37.6282939,62.1613749 29.7269694,62.1613749 C21.8256449,62.1613749 14.2541398,58.9937005 8.70676379,53.3671964 C-2.9022546,41.6410728 -2.9022546,22.6296674 8.70676379,10.9037848 C17.7638712,1.71835871 31.7370207,-0.520757608 43.2107555,5.37471982 C41.5977276,6.47077405 39.8653655,7.74091987 38.0078864,9.21768653 C29.1750195,5.96562903 19.2563969,8.1820843 12.648041,14.8846995 L12.648041,14.8846995 Z" id="Logomark.svg"></path>
                <path d="M397.156,23.926 L398.362,23.926 L398.362,19.894 L400,23.926 L400.45,23.926 L402.088,19.894 L402.088,23.926 L403.456,23.926 L403.456,18.13 L401.692,18.13 L400.306,21.712 L398.902,18.13 L397.156,18.13 L397.156,23.926 Z M393.232,23.926 L394.6,23.926 L394.6,19.21 L396.256,19.21 L396.256,18.13 L391.576,18.13 L391.576,19.21 L393.232,19.21 L393.232,23.926 Z" id="™"></path>
            </g>
        </g>
    </g>
</svg>