<?xml version="1.0" encoding="UTF-8" standalone="no"?>
<svg
   xmlns="http://www.w3.org/2000/svg"
   version="1.1"
   width="1394"
   height="256"
   viewBox="0 0 1394 256">
  <g
     transform="matrix(1.99454,0,0,-1.98287,-8.73141,256.355)">
    <g
       transform="translate(74.7061,71.2549)">
      <path
         d="m 0,0 0.011,0.011 c -2.652,2.652 -4.155,3.182 -4.155,3.182 31.939,31.938 40.625,33.283 40.625,33.283 l -0.02,-0.022 C 36.395,36.101 34.821,26.684 3.537,-4.602 3.537,-4.602 2.652,-2.651 0,0 M 15.224,-10.665 C 58.001,32.111 53.965,53.376 53.87,53.863 l 0.016,0.016 c 0,0 -20.719,4.28 -64.011,-39.012 0,0 -7.145,0.726 -15.276,-7.407 -8.604,-8.604 -15.726,-16.061 -15.726,-16.061 l 20.34,0.034 c 0,0 5.825,6.722 12.385,0.172 l -0.011,-0.011 c 7.636,-8.197 0.386,-12.947 0.386,-12.947 l 0.062,-20.625 c 0,0 7.396,7.521 16,16.125 8.134,8.133 7.189,15.188 7.189,15.188"
         style="fill:#024a80" />
    </g>
    <g
       transform="translate(34.9932,33.1328)">
      <path
         d="m 0,0 11.401,11.402 -2.672,2.674 13.895,14.006 c 0,0 2.331,2.795 6.375,-1.25 3.689,-3.688 1.915,-6.127 0.457,-6.923 C 28.302,19.28 19.048,14.098 19.048,14.098 L 21.654,11.49 0,0 Z"
         style="fill:#024a80" />
    </g>
    <g
       transform="translate(118.1416,88.8027)">
      <path
         d="m 0,0 c -1.044,-1.555 -4.458,-6.553 -7.581,-10.238 1.738,-4.959 2.692,-10.292 2.692,-15.855 0,-26.214 -21.009,-47.464 -46.926,-47.464 -25.917,0 -46.927,21.25 -46.927,47.464 0,26.213 21.01,47.464 46.927,47.464 5.639,0 11.046,-1.008 16.056,-2.852 1.363,1.089 5.466,4.302 10.311,7.463 -7.916,4.101 -16.88,6.43 -26.388,6.43 -31.986,0 -57.917,-26.19 -57.917,-58.5 0,-32.308 25.931,-58.501 57.917,-58.501 31.986,0 57.917,26.193 57.917,58.501 C 6.08,-16.711 3.884,-7.855 0,0"
         style="fill:#024a80" />
    </g>
  </g>
  <g
     transform="scale(1.0069757,0.99307263)">
    <path
       d="m 945.79752,141.68425 -60.97741,0 q 0,10.30136 7.31065,16.2828 7.31064,5.81528 19.43966,5.81528 9.13831,0 22.59654,-4.98453 l 6.31373,14.78744 -6.14758,2.82457 q -5.48299,1.99381 -11.96287,3.15687 -6.47989,1.16305 -12.79363,1.16305 -21.59963,0 -34.89171,-12.62747 -13.12592,-12.79363 -13.12592,-33.72865 0,-20.93503 11.96287,-33.8948 11.96287,-12.959779 31.40253,-12.959779 19.43967,0 30.07333,12.959779 10.79981,12.79362 10.79981,36.05476 l 0,5.15068 z m -40.87314,-37.38397 q -8.63985,0 -13.95668,5.64913 -5.31683,5.64914 -6.47989,15.9505 l 40.20854,0 q -0.83076,-10.30136 -5.98144,-15.9505 -5.15068,-5.64913 -13.79053,-5.64913 z m -125.1896,74.93409 0,-17.44585 39.04548,-47.51918 q 3.65532,-3.98762 10.79982,-8.63985 -2.49227,0.3323 -6.81219,0.9969 -4.15378,0.49846 -6.31374,0.49846 l -35.05786,0 0,-17.778158 71.77723,0 0,18.442758 -38.71318,47.18688 q -3.82148,4.65223 -11.29827,9.47061 8.97215,-2.99072 14.28898,-2.99072 l 36.22092,0 0,17.77815 -73.93719,0 z m -34.7567,0 0,-90.053829 23.09498,0 0,90.053829 -23.09498,0 z m -0.49846,-102.182851 0,-24.091893 24.25805,0 0,24.091893 -24.25805,0 z m -152.02297,102.182851 0,-90.053829 20.76888,0 0,13.125929 q 12.79362,-14.787439 29.07642,-14.787439 18.27661,0 26.58416,15.950499 1.16305,-1.66151 2.49226,-3.32302 0.83076,-0.99691 2.32612,-2.492269 9.96906,-9.969059 24.09189,-9.969059 6.97834,0 13.12593,2.824567 6.31373,2.658415 10.30136,7.476794 6.14758,8.141397 6.14758,21.599627 l 0,59.6482 -23.09498,0 0,-53.33446 0,-2.82457 q 0,-0.9969 0,-1.99381 -0.3323,-1.32921 -0.3323,-1.82766 -0.66461,-4.98453 -4.65223,-8.1414 -3.82147,-3.15687 -9.30446,-3.15687 -4.31992,0 -8.1414,1.99381 -3.82147,1.99382 -6.31373,5.48299 -2.32612,3.32302 -3.15687,6.97834 -0.83076,3.65532 -0.83076,10.96596 l 0,45.85767 -22.92883,0 0,-52.83601 -0.3323,-6.31374 q -1.32921,-12.62747 -13.95669,-12.62747 -4.65222,0 -8.806,2.15996 -3.98762,2.15996 -6.47989,6.14759 -1.82766,2.99072 -2.65841,7.31064 -0.83076,4.15378 -0.83076,11.46442 l 0,44.69461 -23.09499,0 z m -40.23968,0 0,-90.053829 23.09499,0 0,90.053829 -23.09499,0 z m -0.49845,-102.182851 0,-24.091893 24.25804,0 0,24.091893 -24.25804,0 z m -65.95934,30.073331 0,-17.944309 13.95669,0 0,-22.264232 23.09498,0 0,22.264232 20.10427,0 0,17.944309 -20.10427,0 0,39.71008 0.16615,6.64604 q 0,4.65223 3.32302,7.31065 3.48917,2.49226 9.63676,2.49226 2.15996,0 3.98762,-0.3323 1.99382,-0.3323 4.98453,-1.32921 l 3.15687,15.61819 q -6.31373,1.99381 -9.96906,2.65842 -3.48917,0.6646 -8.4737,0.6646 -14.95359,0 -22.59653,-7.47679 -3.98762,-3.65532 -5.64913,-8.806 -1.66151,-5.31684 -1.66151,-14.45514 l 0,-42.7008 -13.95669,0 z m -91.58035,105.67202 0,-123.616329 21.59963,0 0,14.288989 q 1.32921,-2.49227 1.49536,-2.82457 0.3323,-0.3323 2.49226,-2.990719 9.96906,-10.467512 25.4211,-10.467512 17.2797,0 27.58107,12.627475 10.30136,12.461326 10.30136,33.562496 0,20.93503 -10.96597,34.39326 -10.79981,13.29208 -28.07951,13.29208 -16.2828,0 -26.75031,-12.95978 l 0,44.69461 -23.09499,0 z m 22.76268,-79.08787 0,1.32921 q 0,12.29518 6.14759,19.77197 6.14759,7.47679 15.9505,7.47679 9.4706,0 15.11974,-7.64294 5.81528,-7.8091 5.81528,-20.43657 0,-12.79363 -5.81528,-20.60272 -5.81529,-7.8091 -15.45205,-7.8091 -9.8029,0 -15.78434,7.64294 -5.98144,7.64295 -5.98144,20.27042 z m -130.09622,0.66461 q 0,-20.93503 12.95978,-33.8948 12.95977,-12.959779 33.72865,-12.959779 20.93502,0 33.8948,12.793629 12.95978,12.79362 12.95978,33.8948 0,20.76887 -12.95978,33.72865 -12.95978,12.95977 -33.8948,12.95977 -20.76888,0 -33.72865,-12.79362 -12.95978,-12.79363 -12.95978,-33.72865 z m 46.68843,-29.57488 q -10.30136,0 -16.6151,8.1414 -6.14759,7.97525 -6.14759,21.26733 0,13.12593 6.14759,21.26732 6.31374,7.97525 16.6151,7.97525 10.30136,0 16.6151,-7.97525 6.31373,-7.97524 6.31373,-21.26732 0,-13.12593 -6.31373,-21.26733 -6.31374,-8.1414 -16.6151,-8.1414 z"
       style="fill:#1e1e1e" />
  </g>
  <g
     transform="matrix(0.93075457,0,0,1.0314212,35.339064,0)">
    <path
       d="m 1351.0626,139.25387 q 0,-8.20176 1.7398,-15.49221 1.8226,-7.29046 4.9707,-13.42107 3.1482,-6.21346 7.4562,-11.101378 4.308,-4.970765 9.4444,-8.367455 5.1365,-3.479536 10.8529,-5.30215 5.7164,-1.822614 11.6813,-1.822614 4.8879,0 9.2787,1.242692 4.4737,1.242691 8.0361,3.645228 3.5624,2.402536 6.1306,6.047764 2.6511,3.562382 3.8938,8.284613 l 0.3314,0 q 0,-1.077 0.083,-2.40254 0.083,-1.159845 0.2486,-2.485383 0.1656,-1.408383 0.497,-2.899613 l 8.4503,-43.328505 7.1248,0 -23.0312,118.801291 -7.1248,0 1.8226,-9.85868 q 0.2486,-1.40839 0.58,-2.73392 0.4142,-1.40839 0.7456,-2.40254 0.3314,-1.15985 0.7456,-2.154 l -0.3314,0 q -2.154,3.56238 -5.3021,7.04192 -3.1482,3.39669 -7.2905,6.13061 -4.1423,2.73392 -9.1959,4.39084 -4.9708,1.65692 -10.77,1.65692 -7.6219,0 -13.4211,-2.31969 -5.7992,-2.31969 -9.693,-6.62768 -3.8937,-4.39085 -5.9649,-10.6043 -1.9883,-6.21346 -1.9883,-13.91815 z m 7.4562,-0.33138 q 0,6.21346 1.574,11.18422 1.657,4.97077 4.6394,8.4503 3.0653,3.47954 7.4562,5.385 4.3908,1.82261 9.9415,1.82261 6.0478,0 11.1842,-2.07115 5.2193,-2.07115 9.4445,-5.63353 4.308,-3.56239 7.539,-8.36746 3.3138,-4.80507 5.5506,-10.19007 2.3197,-5.46784 3.4796,-11.18422 1.1598,-5.71638 1.1598,-11.26707 0,-5.38499 -1.4084,-10.19007 -1.3255,-4.80507 -4.2251,-8.367452 -2.8168,-3.645228 -7.2076,-5.716381 -4.3909,-2.071152 -10.4386,-2.071152 -6.7934,0 -13.7525,3.313844 -6.8762,3.313843 -12.4269,9.527301 -5.5507,6.21346 -9.0302,15.16083 -3.4795,8.94738 -3.4795,20.21445 z m -50.0391,-53.104344 7.1248,0 -3.0653,15.243684 q -0.3314,1.49123 -0.7456,2.89961 -0.3314,1.32554 -0.6628,2.48538 -0.3314,1.32554 -0.7456,2.48538 l 0.3314,0 q 2.2368,-4.55653 5.385,-8.86453 3.1481,-4.307993 7.1247,-7.621837 3.9766,-3.313844 8.7817,-5.30215 4.8051,-1.988306 10.2729,-1.988306 2.3197,0 5.0536,0.497077 l -1.4912,7.124763 q -1.077,-0.165692 -1.9883,-0.248538 -0.8285,-0.08285 -1.7398,-0.08285 -5.2193,0 -9.693,2.236844 -4.4737,2.153999 -8.2846,5.799227 -3.8109,3.64523 -6.8762,8.36746 -3.0653,4.72223 -5.4678,9.85868 -2.3197,5.05362 -3.9767,10.19007 -1.574,5.05361 -2.4025,9.36161 l -6.2963,32.39282 -7.1248,0 16.4864,-84.834398 z M 1201.8568,151.5151 q 0,-6.87623 2.5682,-11.92984 2.6511,-5.13646 7.0419,-8.69884 4.4737,-3.64523 10.273,-5.96492 5.882,-2.40254 12.2612,-3.72807 6.3791,-1.32554 12.924,-1.82262 6.6277,-0.49707 12.5926,-0.49707 l 6.6277,0 q 0.7456,-4.14231 0.9113,-6.54485 0.2485,-2.40253 0.2485,-4.30799 0,-3.72808 -0.9113,-6.87623 -0.9113,-3.230995 -3.1482,-5.550686 -2.154,-2.31969 -5.7992,-3.562381 -3.6452,-1.325538 -9.1131,-1.325538 -5.5506,0 -10.2729,1.325538 -4.6393,1.242691 -8.1189,2.816767 -4.0594,1.822614 -7.3733,4.059458 l -3.0653,-6.461995 q 3.3967,-2.402537 7.8704,-4.307997 3.8109,-1.656922 9.0302,-2.982459 5.3022,-1.408384 11.9298,-1.408384 12.924,0 19.6346,5.799227 6.7934,5.71638 6.7934,17.48052 0,4.39085 -0.9942,9.693 l -10.5215,53.9328 -7.1247,0 2.2368,-11.01853 q 0.3314,-1.65692 0.6628,-3.0653 0.3314,-1.49123 0.6628,-2.56823 0.3313,-1.24269 0.6627,-2.154 l -0.3314,0 q 0.083,0 -0.8284,1.57408 -0.8285,1.49122 -2.6511,3.81092 -1.8226,2.31969 -4.5565,5.05361 -2.7339,2.73392 -6.462,5.05361 -3.6452,2.31969 -8.2018,3.81092 -4.5565,1.57407 -10.0244,1.57407 -5.2193,0 -9.8586,-1.49123 -4.6394,-1.40838 -8.119,-4.1423 -3.3967,-2.73392 -5.4678,-6.62769 -1.9883,-3.97661 -1.9883,-8.94737 z m 7.4561,-0.74562 q 0,2.98246 1.077,5.79923 1.077,2.73392 3.3967,4.88792 2.3197,2.07115 5.7993,3.39669 3.4795,1.24269 8.3674,1.24269 6.7105,0 12.6755,-3.31385 5.9649,-3.39669 10.6871,-8.69884 4.8051,-5.30215 8.0361,-11.84699 3.3138,-6.54484 4.7222,-12.84114 l 0.9113,-3.89377 -5.4678,0 q -4.0595,0 -9.3616,0.24854 -5.3022,0.16569 -10.9357,1.077 -5.5507,0.82846 -10.9357,2.48538 -5.385,1.57408 -9.6102,4.39085 -4.2251,2.81676 -6.7933,7.04191 -2.5683,4.14231 -2.5683,10.02438 z m -108.9426,-14.9123 q 0,-7.20761 1.9883,-13.83529 1.9884,-6.71054 5.5507,-12.50976 3.5624,-5.79923 8.4503,-10.521456 4.9708,-4.722227 10.6872,-8.118917 5.7992,-3.396689 12.1784,-5.219303 6.462,-1.905461 13.0896,-1.905461 8.3675,0 15.2437,2.733921 6.9591,2.733921 11.847,7.621841 4.9708,4.805073 7.6219,11.515605 2.7339,6.62769 2.7339,14.49807 0,7.29045 -2.0712,14.08383 -1.9883,6.71054 -5.6335,12.59261 -3.5624,5.79922 -8.4503,10.6043 -4.8879,4.72222 -10.6872,8.20176 -5.7992,3.39669 -12.1783,5.2193 -6.3792,1.90546 -12.924,1.90546 -8.3675,0 -15.3266,-2.73392 -6.8762,-2.73392 -11.8469,-7.62184 -4.888,-4.97076 -7.6219,-11.6813 -2.6511,-6.79338 -2.6511,-14.82945 z m 7.4562,-0.16569 q 0,6.54484 2.154,12.09553 2.2368,5.46784 6.1306,9.5273 3.9766,3.97661 9.4445,6.21346 5.5506,2.23684 12.2612,2.23684 5.5507,0 10.9357,-1.57407 5.4678,-1.65692 10.4386,-4.63938 4.9707,-2.98246 9.1959,-7.12477 4.2251,-4.1423 7.2904,-9.19591 3.1482,-5.05362 4.888,-10.85284 1.7397,-5.79923 1.7397,-12.09553 0,-6.462 -2.2368,-11.84699 -2.154,-5.46784 -6.1306,-9.36161 -3.8938,-3.976612 -9.4445,-6.13061 -5.4678,-2.236845 -12.1784,-2.236845 -5.7163,0 -11.267,1.656922 -5.4679,1.574076 -10.4386,4.556535 -4.888,2.899613 -9.1131,7.041918 -4.1423,4.05946 -7.2076,9.11307 -3.0653,4.97076 -4.8051,10.68715 -1.6569,5.71638 -1.6569,11.92983 z m -84.6687,-83.840241 7.1247,0 -8.2846,43.328505 q -0.4142,1.49123 -0.8284,2.899613 -0.3314,1.325538 -0.7456,2.485383 -0.4143,1.32554 -0.8285,2.40254 l 0.3314,0 q 2.3197,-4.142308 5.7992,-7.621844 3.4795,-3.562382 7.7047,-6.130611 4.308,-2.568228 9.1959,-3.976612 4.8879,-1.49123 10.0244,-1.49123 7.4561,0 13.1725,2.402537 5.7992,2.319691 9.693,6.710533 3.9766,4.307997 5.9649,10.521457 2.0712,6.13061 2.0712,13.83529 0,8.20177 -1.8226,15.49222 -1.7398,7.29046 -4.888,13.50392 -3.1481,6.13061 -7.4561,11.10137 -4.308,4.88792 -9.4445,8.36746 -5.1364,3.39669 -10.8528,5.2193 -5.7164,1.82261 -11.6813,1.82261 -5.0536,0 -9.5273,-1.24269 -4.3908,-1.24269 -7.9532,-3.64522 -3.4796,-2.48539 -6.0478,-6.04777 -2.5682,-3.64523 -3.8109,-8.28461 l -0.3314,0 q 0,1.15985 -0.083,2.48538 -0.1657,2.56823 -0.7456,5.88208 l -1.7398,8.78168 -7.1248,0 23.1141,-118.801291 z m -9.0302,87.568321 q 0,5.38499 1.3255,10.19007 1.3255,4.80507 4.1423,8.4503 2.8996,3.56238 7.2905,5.63353 4.3908,2.07115 10.5214,2.07115 6.7934,0 13.6696,-3.23099 6.9591,-3.31385 12.5098,-9.52731 5.5507,-6.21345 9.0302,-15.16083 3.4795,-8.94738 3.4795,-20.29729 0,-6.21346 -1.6569,-11.18422 -1.5741,-4.97077 -4.6394,-8.450305 -2.9824,-3.479536 -7.3733,-5.30215 -4.308,-1.90546 -9.7758,-1.90546 -6.0478,0 -11.2671,2.071152 -5.1364,1.988306 -9.4444,5.467842 -4.2252,3.479541 -7.539,8.284611 -3.3139,4.72223 -5.6336,10.10722 -2.2368,5.385 -3.4795,11.26707 -1.1598,5.79923 -1.1598,11.51561 z"
       style="fill:#1e1e1e" />
  </g>
</svg>
