<?xml version="1.0" encoding="UTF-8" standalone="no"?>
<svg
   xmlns="http://www.w3.org/2000/svg"
   version="1.1"
   width="1340"
   height="256"
   viewBox="0 0 1340 256">
  <g transform="matrix(1.99454,0,0,-1.98287,-8.73141,256.355)">
    <g transform="translate(74.7061,71.2549)">
      <path
         d="m 0,0 0.011,0.011 c -2.652,2.652 -4.155,3.182 -4.155,3.182 31.939,31.938 40.625,33.283 40.625,33.283 l -0.02,-0.022 C 36.395,36.101 34.821,26.684 3.537,-4.602 3.537,-4.602 2.652,-2.651 0,0 M 15.224,-10.665 C 58.001,32.111 53.965,53.376 53.87,53.863 l 0.016,0.016 c 0,0 -20.719,4.28 -64.011,-39.012 0,0 -7.145,0.726 -15.276,-7.407 -8.604,-8.604 -15.726,-16.061 -15.726,-16.061 l 20.34,0.034 c 0,0 5.825,6.722 12.385,0.172 l -0.011,-0.011 c 7.636,-8.197 0.386,-12.947 0.386,-12.947 l 0.062,-20.625 c 0,0 7.396,7.521 16,16.125 8.134,8.133 7.189,15.188 7.189,15.188"
         style="fill:#024a80;fill-opacity:1;fill-rule:nonzero;stroke:none"
         id="path3808" />
    </g>
    <g transform="translate(34.9932,33.1328)">
      <path
         id="path3403"
         d="m 0,0 11.401,11.402 -2.672,2.674 13.895,14.006 c 0,0 2.331,2.795 6.375,-1.25 3.689,-3.688 1.915,-6.127 0.457,-6.923 C 28.302,19.28 19.048,14.098 19.048,14.098 L 21.654,11.49 0,0 Z"
         style="fill:#024a80;fill-opacity:1;fill-rule:nonzero;stroke:none" />
    </g>
    <g transform="translate(118.1416,88.8027)">
      <path
         d="m 0,0 c -1.044,-1.555 -4.458,-6.553 -7.581,-10.238 1.738,-4.959 2.692,-10.292 2.692,-15.855 0,-26.214 -21.009,-47.464 -46.926,-47.464 -25.917,0 -46.927,21.25 -46.927,47.464 0,26.213 21.01,47.464 46.927,47.464 5.639,0 11.046,-1.008 16.056,-2.852 1.363,1.089 5.466,4.302 10.311,7.463 -7.916,4.101 -16.88,6.43 -26.388,6.43 -31.986,0 -57.917,-26.19 -57.917,-58.5 0,-32.308 25.931,-58.501 57.917,-58.501 31.986,0 57.917,26.193 57.917,58.501 C 6.08,-16.711 3.884,-7.855 0,0"
         style="fill:#024a80;fill-opacity:1;fill-rule:nonzero;stroke:none"
         id="path3815" />
    </g>
  </g>
  <g transform="scale(1.0069757,0.99307263)">
    <path
       id="path3833"
       style="fill:#1e1e1e"
       d="m 945.79752,141.68425 -60.97741,0 q 0,10.30136 7.31065,16.2828 7.31064,5.81528 19.43966,5.81528 9.13831,0 22.59654,-4.98453 l 6.31373,14.78744 -6.14758,2.82457 q -5.48299,1.99381 -11.96287,3.15687 -6.47989,1.16305 -12.79363,1.16305 -21.59963,0 -34.89171,-12.62747 -13.12592,-12.79363 -13.12592,-33.72865 0,-20.93503 11.96287,-33.8948 11.96287,-12.959779 31.40253,-12.959779 19.43967,0 30.07333,12.959779 10.79981,12.79362 10.79981,36.05476 l 0,5.15068 z m -40.87314,-37.38397 q -8.63985,0 -13.95668,5.64913 -5.31683,5.64914 -6.47989,15.9505 l 40.20854,0 q -0.83076,-10.30136 -5.98144,-15.9505 -5.15068,-5.64913 -13.79053,-5.64913 z m -125.1896,74.93409 0,-17.44585 39.04548,-47.51918 q 3.65532,-3.98762 10.79982,-8.63985 -2.49227,0.3323 -6.81219,0.9969 -4.15378,0.49846 -6.31374,0.49846 l -35.05786,0 0,-17.778158 71.77723,0 0,18.442758 -38.71318,47.18688 q -3.82148,4.65223 -11.29827,9.47061 8.97215,-2.99072 14.28898,-2.99072 l 36.22092,0 0,17.77815 -73.93719,0 z m -34.7567,0 0,-90.053829 23.09498,0 0,90.053829 -23.09498,0 z m -0.49846,-102.182851 0,-24.091893 24.25805,0 0,24.091893 -24.25805,0 z m -152.02297,102.182851 0,-90.053829 20.76888,0 0,13.125929 q 12.79362,-14.787439 29.07642,-14.787439 18.27661,0 26.58416,15.950499 1.16305,-1.66151 2.49226,-3.32302 0.83076,-0.99691 2.32612,-2.492269 9.96906,-9.969059 24.09189,-9.969059 6.97834,0 13.12593,2.824567 6.31373,2.658415 10.30136,7.476794 6.14758,8.141397 6.14758,21.599627 l 0,59.6482 -23.09498,0 0,-53.33446 0,-2.82457 q 0,-0.9969 0,-1.99381 -0.3323,-1.32921 -0.3323,-1.82766 -0.66461,-4.98453 -4.65223,-8.1414 -3.82147,-3.15687 -9.30446,-3.15687 -4.31992,0 -8.1414,1.99381 -3.82147,1.99382 -6.31373,5.48299 -2.32612,3.32302 -3.15687,6.97834 -0.83076,3.65532 -0.83076,10.96596 l 0,45.85767 -22.92883,0 0,-52.83601 -0.3323,-6.31374 q -1.32921,-12.62747 -13.95669,-12.62747 -4.65222,0 -8.806,2.15996 -3.98762,2.15996 -6.47989,6.14759 -1.82766,2.99072 -2.65841,7.31064 -0.83076,4.15378 -0.83076,11.46442 l 0,44.69461 -23.09499,0 z m -40.23968,0 0,-90.053829 23.09499,0 0,90.053829 -23.09499,0 z m -0.49845,-102.182851 0,-24.091893 24.25804,0 0,24.091893 -24.25804,0 z m -65.95934,30.073331 0,-17.944309 13.95669,0 0,-22.264232 23.09498,0 0,22.264232 20.10427,0 0,17.944309 -20.10427,0 0,39.71008 0.16615,6.64604 q 0,4.65223 3.32302,7.31065 3.48917,2.49226 9.63676,2.49226 2.15996,0 3.98762,-0.3323 1.99382,-0.3323 4.98453,-1.32921 l 3.15687,15.61819 q -6.31373,1.99381 -9.96906,2.65842 -3.48917,0.6646 -8.4737,0.6646 -14.95359,0 -22.59653,-7.47679 -3.98762,-3.65532 -5.64913,-8.806 -1.66151,-5.31684 -1.66151,-14.45514 l 0,-42.7008 -13.95669,0 z m -91.58035,105.67202 0,-123.616329 21.59963,0 0,14.288989 q 1.32921,-2.49227 1.49536,-2.82457 0.3323,-0.3323 2.49226,-2.990719 9.96906,-10.467512 25.4211,-10.467512 17.2797,0 27.58107,12.627475 10.30136,12.461326 10.30136,33.562496 0,20.93503 -10.96597,34.39326 -10.79981,13.29208 -28.07951,13.29208 -16.2828,0 -26.75031,-12.95978 l 0,44.69461 -23.09499,0 z m 22.76268,-79.08787 0,1.32921 q 0,12.29518 6.14759,19.77197 6.14759,7.47679 15.9505,7.47679 9.4706,0 15.11974,-7.64294 5.81528,-7.8091 5.81528,-20.43657 0,-12.79363 -5.81528,-20.60272 -5.81529,-7.8091 -15.45205,-7.8091 -9.8029,0 -15.78434,7.64294 -5.98144,7.64295 -5.98144,20.27042 z m -130.09622,0.66461 q 0,-20.93503 12.95978,-33.8948 12.95977,-12.959779 33.72865,-12.959779 20.93502,0 33.8948,12.793629 12.95978,12.79362 12.95978,33.8948 0,20.76887 -12.95978,33.72865 -12.95978,12.95977 -33.8948,12.95977 -20.76888,0 -33.72865,-12.79362 -12.95978,-12.79363 -12.95978,-33.72865 z m 46.68843,-29.57488 q -10.30136,0 -16.6151,8.1414 -6.14759,7.97525 -6.14759,21.26733 0,13.12593 6.14759,21.26732 6.31374,7.97525 16.6151,7.97525 10.30136,0 16.6151,-7.97525 6.31373,-7.97524 6.31373,-21.26732 0,-13.12593 -6.31373,-21.26733 -6.31374,-8.1414 -16.6151,-8.1414 z" />
  </g>
  <g transform="scale(0.95916628,1.0425721)">
    <path
       id="path3845"
       style="fill:#1e1e1e"
       d="m 1326.0743,158.18275 q 2.4588,2.8686 6.0651,5.08152 3.1145,1.88508 7.7042,3.44232 4.5898,1.55724 10.9007,1.55724 3.9341,0 7.9501,-1.14744 4.0161,-1.14744 7.2125,-3.44232 3.2784,-2.37684 5.3274,-5.7372 2.131,-3.44232 2.131,-8.03208 0,-3.2784 -1.7212,-5.65524 -1.6392,-2.4588 -4.4258,-4.34388 -2.7867,-1.88508 -6.3109,-3.44232 -3.5243,-1.6392 -7.2945,-3.19645 -3.6882,-1.6392 -7.2125,-3.44232 -3.5242,-1.88508 -6.3109,-4.34388 -2.7866,-2.4588 -4.5078,-5.65524 -1.6392,-3.2784 -1.6392,-7.62228 0,-6.22896 2.6227,-10.90068 2.7047,-4.753682 6.9666,-7.868163 4.262,-3.11448 9.5894,-4.67172 5.3274,-1.639201 10.6548,-1.639201 6.3928,0 10.9826,1.475281 4.6717,1.39332 7.6223,3.11448 3.4423,2.049001 5.7372,4.507801 l -4.8357,5.245442 q -1.885,-2.049001 -4.6717,-3.688202 -2.3768,-1.39332 -6.147,-2.54076 -3.6882,-1.2294 -8.8517,-1.2294 -3.6062,0 -7.5403,0.98352 -3.9341,0.98352 -7.2125,3.19644 -3.2784,2.130962 -5.4093,5.491322 -2.131,3.36036 -2.131,8.11404 0,3.36036 1.6392,5.90112 1.7212,2.4588 4.5078,4.42584 2.7867,1.88508 6.3109,3.52428 3.5243,1.55724 7.2125,3.19644 3.7702,1.6392 7.2945,3.52428 3.5242,1.80312 6.3109,4.26193 2.7866,2.37684 4.4258,5.65524 1.7212,3.19644 1.7212,7.62228 0,5.49132 -2.4588,10.16304 -2.4588,4.58976 -6.6388,7.95012 -4.098,3.36036 -9.5073,5.24544 -5.4094,1.88508 -11.2286,1.88508 -7.8681,0 -13.4414,-1.88508 -5.5733,-1.88508 -9.2615,-4.17996 -4.2619,-2.70468 -7.0486,-6.06504 l 4.9176,-4.83564 z m -74.0918,0 q 2.4588,2.8686 6.065,5.08152 3.1145,1.88508 7.7043,3.44232 4.5897,1.55724 10.9007,1.55724 3.934,0 7.9501,-1.14744 4.016,-1.14744 7.2125,-3.44232 3.2784,-2.37684 5.3274,-5.7372 2.1309,-3.44232 2.1309,-8.03208 0,-3.2784 -1.7211,-5.65524 -1.6392,-2.4588 -4.4259,-4.34388 -2.7866,-1.88508 -6.3109,-3.44232 -3.5243,-1.6392 -7.2944,-3.19645 -3.6882,-1.6392 -7.2125,-3.44232 -3.5243,-1.88508 -6.3109,-4.34388 -2.7867,-2.4588 -4.5078,-5.65524 -1.6392,-3.2784 -1.6392,-7.62228 0,-6.22896 2.6227,-10.90068 2.7047,-4.753682 6.9666,-7.868163 4.2619,-3.11448 9.5893,-4.67172 5.3274,-1.639201 10.6548,-1.639201 6.3929,0 10.9826,1.475281 4.6718,1.39332 7.6223,3.11448 3.4423,2.049001 5.7372,4.507801 l -4.8356,5.245442 q -1.8851,-2.049001 -4.6717,-3.688202 -2.3769,-1.39332 -6.147,-2.54076 -3.6882,-1.2294 -8.8517,-1.2294 -3.6063,0 -7.5403,0.98352 -3.9341,0.98352 -7.2125,3.19644 -3.2784,2.130962 -5.4094,5.491322 -2.1309,3.36036 -2.1309,8.11404 0,3.36036 1.6392,5.90112 1.7211,2.4588 4.5078,4.42584 2.7866,1.88508 6.3109,3.52428 3.5243,1.55724 7.2125,3.19644 3.7701,1.6392 7.2944,3.52428 3.5243,1.80312 6.3109,4.26193 2.7867,2.37684 4.4259,5.65524 1.7211,3.19644 1.7211,7.62228 0,5.49132 -2.4588,10.16304 -2.4588,4.58976 -6.6387,7.95012 -4.098,3.36036 -9.5074,5.24544 -5.4094,1.88508 -11.2285,1.88508 -7.8682,0 -13.4415,-1.88508 -5.5732,-1.88508 -9.2614,-4.17996 -4.262,-2.70468 -7.0486,-6.06504 l 4.9176,-4.83564 z m -91.9591,-18.11316 q 0,-6.72073 1.6392,-13.19557 1.6392,-6.5568 4.6717,-12.45792 3.1145,-5.90112 7.4583,-10.90068 4.3439,-4.999562 9.7533,-8.605802 5.4913,-3.688201 11.8842,-5.737201 6.3929,-2.049001 13.4414,-2.049001 7.5404,0 13.0317,2.294881 5.5733,2.21292 9.0975,6.228961 3.6063,3.934081 5.3274,9.425402 1.7212,5.40936 1.7212,11.80224 0,2.37684 -0.3278,4.75368 -0.3279,2.29488 -0.7377,4.17996 -0.4917,2.21292 -1.0655,4.17996 l -67.3711,0 q -0.9835,4.83565 -0.9835,9.17953 0,6.06504 1.8031,11.39244 1.8851,5.24544 5.5733,9.17952 3.7701,3.93408 9.2615,6.22896 5.5732,2.29488 12.9497,2.29488 5.983,0 11.0646,-1.6392 5.1634,-1.6392 8.9336,-3.60624 4.4258,-2.29488 8.0321,-5.3274 l 2.6227,6.31092 q -3.9341,3.11448 -8.7697,5.57328 -4.18,2.13096 -9.7533,3.85212 -5.5732,1.72116 -12.13,1.72116 -8.1141,0 -14.9168,-2.37684 -6.8027,-2.4588 -11.7203,-6.9666 -4.9176,-4.58976 -7.7042,-11.0646 -2.7866,-6.5568 -2.7866,-14.67084 z m 69.8299,-16.63789 q 0.1639,-0.90156 0.3278,-2.049 0.164,-0.98352 0.2459,-2.21292 0.082,-1.31136 0.082,-2.78664 0,-5.90112 -1.7212,-10.16304 -1.6392,-4.26192 -4.5897,-7.048561 -2.8686,-2.786641 -6.8027,-4.098001 -3.9341,-1.39332 -8.5239,-1.39332 -5.8191,0 -11.6383,1.88508 -5.7372,1.88508 -10.9007,5.655242 -5.1635,3.6882 -9.3434,9.26148 -4.18,5.57328 -6.7207,12.94968 l 59.5849,0 z m -112.2852,-34.259283 7.0485,0 -3.0325,15.080643 q -0.3278,1.47528 -0.7376,2.8686 -0.3279,1.31136 -0.6557,2.4588 -0.3278,1.31136 -0.7376,2.4588 l 0.3278,0 q 2.2129,-4.5078 5.3274,-8.76972 3.1145,-4.261922 7.0486,-7.540322 3.934,-3.278401 8.6877,-5.245441 4.7537,-1.96704 10.1631,-1.96704 2.2948,0 4.9995,0.49176 l -1.4753,7.048561 q -1.0654,-0.16392 -1.967,-0.24588 -0.8196,-0.08196 -1.7212,-0.08196 -5.1634,0 -9.5893,2.21292 -4.4258,2.130962 -8.196,5.737202 -3.7701,3.60624 -6.8027,8.27796 -3.0325,4.67172 -5.4093,9.75324 -2.2949,4.99956 -3.9341,10.08108 -1.5572,4.99957 -2.3768,9.26149 l -6.229,32.04636 -7.0486,0 16.3101,-83.927053 z m -113.4327,117.530663 -7.04855,0 22.78485,-117.530663 7.0486,0 -1.6392,9.261481 q -0.3278,1.475281 -0.6557,2.868602 -0.3278,1.31136 -0.6557,2.37684 -0.3278,1.2294 -0.7376,2.29488 l 0.3278,0 q 2.131,-3.6882 5.2455,-7.048562 3.1145,-3.44232 7.1305,-6.065041 4.016,-2.62272 8.9336,-4.17996 4.9176,-1.557241 10.7368,-1.557241 7.4584,0 13.1956,2.376841 5.7372,2.29488 9.5893,6.638761 3.9341,4.261922 5.9011,10.408922 2.049,6.06504 2.049,13.68732 0,12.13008 -3.8521,22.29313 -3.7702,10.08108 -10.1631,17.37552 -6.3109,7.21248 -14.5069,11.22852 -8.114,4.01604 -16.8018,4.01604 -4.9176,0 -9.3434,-1.2294 -4.4259,-1.14744 -8.0321,-3.44232 -3.5243,-2.37684 -6.147,-5.90112 -2.6227,-3.60624 -3.8521,-8.44188 l -0.3279,0 q 0,1.14744 -0.1639,2.4588 -0.1639,1.14744 -0.3278,2.70468 -0.1639,1.47528 -0.4918,3.11448 l -8.196,42.29137 z m 13.5234,-64.99429 q 0,5.40936 1.3933,10.245 1.3934,4.83564 4.262,8.44188 2.8686,3.60624 7.2124,5.7372 4.3439,2.13096 10.1631,2.13096 6.7207,0 13.5234,-3.19644 6.8846,-3.2784 12.3759,-9.4254 5.4914,-6.147 8.9337,-14.99868 3.4423,-8.85169 3.4423,-20.08021 0,-6.147 -1.6392,-11.0646 -1.5572,-4.9176 -4.5898,-8.35992 -3.0325,-3.442322 -7.3764,-5.245442 -4.2619,-1.88508 -9.7532,-1.88508 -5.9011,0 -10.9826,2.049 -5.0816,1.96704 -9.3435,5.491322 -4.1799,3.44232 -7.4583,8.11404 -3.2784,4.67172 -5.5733,9.99912 -2.2129,5.3274 -3.4423,10.98264 -1.1475,5.65525 -1.1475,11.06461 z" />
  </g>
</svg>
